<svg width="375" height="306" viewBox="0 0 375 306" fill="none" xmlns="http://www.w3.org/2000/svg">
    <mask id="mask0_8_4517" style="mask-type:alpha" maskUnits="userSpaceOnUse" x="0" y="0" width="375" height="306">
        <path d="M0 0H375V306H0V0Z" fill="#34A853"/>
    </mask>
    <g mask="url(#mask0_8_4517)">
        <g opacity="0.06">
            <path d="M100.581 162.819L108.139 151.601L110.9 160.971L119.939 158.585L121.538 167.275L131.739 165.584L124.198 176.803L100.581 162.819Z" fill="white"/>
            <path d="M124.198 177.909C123.979 177.909 123.761 177.845 123.575 177.735L99.9753 163.751C99.4198 163.42 99.2683 162.74 99.605 162.219L107.146 151C107.399 150.637 107.853 150.432 108.308 150.495C108.762 150.558 109.149 150.874 109.267 151.301L111.708 159.612L119.62 157.526C119.939 157.447 120.293 157.494 120.562 157.652C120.848 157.826 121.034 158.095 121.101 158.395L122.498 165.995L131.538 164.494C131.992 164.415 132.463 164.605 132.716 164.968C132.968 165.331 132.985 165.805 132.733 166.169L125.191 177.387C124.973 177.719 124.585 177.909 124.198 177.909ZM102.214 162.472L123.828 175.27L129.316 167.101L121.741 168.365C121.438 168.412 121.118 168.349 120.865 168.175C120.613 168.002 120.428 167.749 120.377 167.464L118.997 159.975L111.203 162.029C110.9 162.108 110.58 162.077 110.311 161.934C110.042 161.792 109.84 161.555 109.755 161.271L107.702 154.303L102.214 162.472Z" fill="white"/>
            <path d="M28.3332 31.9121C28.1143 31.4855 27.9965 30.5533 27.9965 30.5533L26.229 8.08496L43.18 24.0277L43.1464 24.0435C43.5167 24.3595 43.8534 24.7229 44.0722 25.1495C45.3515 27.7566 42.8602 31.3907 38.5172 33.2551C34.1574 35.1196 29.5956 34.5192 28.3332 31.9121Z" fill="white"/>
            <path d="M33.5012 35.4514C30.6227 35.4514 28.2492 34.377 27.2729 32.3703C27.0036 31.8173 26.8689 30.9483 26.8352 30.6797L25.0509 8.16397C25.0173 7.70576 25.2866 7.26335 25.7411 7.07374C26.1956 6.88414 26.7174 6.96314 27.0709 7.29495L44.0219 23.2376C44.0893 23.3008 44.1398 23.364 44.1903 23.443C44.6111 23.8381 44.9141 24.2489 45.1329 24.6913C45.9241 26.3029 45.6547 28.2148 44.3754 30.0792C43.2139 31.7857 41.295 33.2709 38.9888 34.2506C37.1035 35.0722 35.2182 35.4514 33.5012 35.4514ZM29.4107 31.4381C30.387 33.4447 34.326 33.824 38.0125 32.2439C39.9146 31.4223 41.4633 30.2372 42.3891 28.8784C43.2139 27.6776 43.4328 26.5083 42.9783 25.6077C42.8604 25.3707 42.6584 25.1179 42.3386 24.8493C42.2544 24.7703 42.1703 24.6755 42.1029 24.5807L27.6264 10.9607L29.1582 30.4427C29.2087 30.7587 29.3266 31.2801 29.4107 31.4381Z" fill="white"/>
            <path d="M33.8886 23.8063C38.2315 21.9419 42.7765 22.5423 44.0558 25.1494C45.3351 27.7565 42.8438 31.3906 38.5009 33.255C34.1579 35.1195 29.6129 34.5191 28.3336 31.912C27.0543 29.2891 29.5456 25.6708 33.8886 23.8063Z" fill="white"/>
            <path d="M33.5012 35.4355C33.0131 35.4355 32.5417 35.4039 32.0872 35.3407C29.7643 35.0247 28.0304 33.9661 27.2561 32.3544C26.465 30.7428 26.7343 28.8309 28.0136 26.9664C29.1751 25.26 31.0941 23.7747 33.4002 22.7951C38.4165 20.6462 43.5675 21.4837 45.133 24.6912C46.6985 27.8987 44.0052 32.1016 38.9889 34.2505C37.1709 35.0405 35.2687 35.4355 33.5012 35.4355ZM34.3766 24.8176C32.4744 25.6392 30.9258 26.8242 29.9999 28.1831C29.1751 29.3839 28.9563 30.5531 29.4108 31.4538C29.8484 32.3544 30.9258 32.9706 32.4407 33.176C34.1409 33.3972 36.1272 33.0812 38.0125 32.2596C41.699 30.6796 43.9715 27.6459 42.9952 25.6234C42.002 23.6009 38.063 23.2375 34.3766 24.8176Z" fill="white"/>
            <path d="M353.567 254.43L342.103 250.796L339.73 239.673L348.786 232.183L360.25 235.801L362.64 246.925L353.567 254.43Z" fill="white"/>
            <path d="M353.567 255.536C353.432 255.536 353.315 255.52 353.197 255.473L341.733 251.855C341.329 251.728 341.043 251.412 340.959 251.017L338.569 239.894C338.485 239.499 338.636 239.104 338.939 238.851L348.012 231.346C348.332 231.077 348.77 230.998 349.174 231.124L360.637 234.743C361.041 234.869 361.327 235.185 361.411 235.58L363.802 246.704C363.886 247.099 363.734 247.494 363.431 247.747L354.358 255.252C354.123 255.441 353.836 255.536 353.567 255.536ZM343.13 249.959L353.298 253.182L361.344 246.53L359.223 236.655L349.056 233.431L341.01 240.083L343.13 249.959Z" fill="white"/>
            <path d="M353.568 255.536C353.012 255.536 352.524 255.173 352.406 254.651L350.15 244.16L339.343 240.747C338.721 240.557 338.401 239.925 338.603 239.341C338.805 238.756 339.478 238.456 340.101 238.646L351.564 242.264C351.968 242.39 352.255 242.706 352.339 243.101L354.729 254.225C354.864 254.825 354.443 255.41 353.803 255.52C353.719 255.52 353.635 255.536 353.568 255.536Z" fill="white"/>
            <path d="M351.177 244.413C350.857 244.413 350.521 244.286 350.285 244.033C349.847 243.575 349.898 242.88 350.386 242.469L359.459 234.964C359.947 234.569 360.688 234.601 361.125 235.059C361.563 235.517 361.513 236.212 361.024 236.623L351.951 244.128C351.733 244.318 351.463 244.413 351.177 244.413Z" fill="white"/>
            <path d="M211.512 202.51L211.529 202.541C211.663 202.399 211.798 202.257 211.95 202.13C212.152 201.957 212.354 201.799 212.606 201.672C212.808 201.577 213.094 201.498 213.364 201.435C213.481 201.404 213.616 201.372 213.734 201.356C213.852 201.325 213.953 201.309 213.953 201.309L214.508 201.325C214.592 201.325 214.677 201.325 214.778 201.34L229.894 201.83L221.746 213.791C221.696 213.87 221.645 213.933 221.595 214.012L221.292 214.455L221.275 214.423C221.14 214.565 221.006 214.708 220.854 214.834C220.652 215.008 220.45 215.166 220.198 215.292C219.996 215.387 219.693 215.466 219.424 215.529C219.306 215.561 219.188 215.592 219.053 215.608C218.935 215.64 218.834 215.656 218.834 215.656L218.279 215.64C218.195 215.64 218.111 215.64 218.01 215.624L202.893 215.134L211.041 203.173C211.091 203.094 211.142 203.031 211.192 202.952L211.512 202.51Z" fill="white"/>
            <path d="M218.851 216.73C218.835 216.73 218.818 216.73 218.818 216.73L218.262 216.714C218.094 216.714 217.993 216.714 217.892 216.699L202.893 216.225C202.473 216.209 202.085 215.988 201.883 215.64C201.681 215.292 201.698 214.866 201.934 214.534L210.081 202.573C210.081 202.557 210.182 202.431 210.182 202.431L210.519 201.925C210.603 201.799 210.721 201.688 210.839 201.609C210.94 201.514 211.041 201.404 211.159 201.325C211.327 201.167 211.63 200.93 212.034 200.724C212.034 200.724 212.051 200.724 212.051 200.709C212.303 200.582 212.623 200.472 213.078 200.377C213.296 200.314 213.448 200.282 213.583 200.266L213.717 200.235C213.801 200.219 213.919 200.203 213.987 200.219L214.542 200.235C214.71 200.235 214.811 200.235 214.896 200.25L229.911 200.74C230.332 200.756 230.719 200.977 230.921 201.325C231.123 201.672 231.106 202.099 230.87 202.431L222.723 214.376C222.723 214.376 222.672 214.455 222.622 214.534L222.285 215.024C222.201 215.15 222.083 215.261 221.966 215.34C221.865 215.45 221.763 215.545 221.646 215.64C221.393 215.877 221.124 216.067 220.821 216.209C220.787 216.225 220.754 216.24 220.737 216.256C220.501 216.367 220.181 216.477 219.744 216.588C219.525 216.651 219.39 216.667 219.239 216.699L219.087 216.73C219.003 216.73 218.919 216.73 218.851 216.73ZM205.031 214.076L218.077 214.502L218.296 215.624L218.33 214.518L218.75 214.534L219.037 214.471C219.424 214.376 219.575 214.329 219.626 214.297C219.643 214.281 219.659 214.281 219.676 214.265C219.777 214.218 219.895 214.123 220.047 213.997C220.181 213.886 220.265 213.791 220.35 213.697C220.383 213.665 220.417 213.618 220.451 213.586L220.585 213.396L220.686 213.428C220.737 213.396 220.804 213.365 220.871 213.349L220.703 213.254L227.773 202.857L214.727 202.431L214.508 201.309L214.475 202.415L214.054 202.399L213.768 202.462C213.347 202.557 213.195 202.62 213.162 202.636C213.162 202.636 213.145 202.636 213.145 202.652C213.027 202.715 212.909 202.794 212.758 202.936C212.623 203.047 212.539 203.142 212.455 203.237C212.421 203.268 212.387 203.316 212.354 203.347L212.219 203.537L212.135 203.505C212.068 203.537 212.017 203.568 211.95 203.584L212.135 203.695L205.031 214.076Z" fill="white"/>
            <path d="M218.515 216.746C217.454 216.746 216.343 216.446 215.215 215.845C213.431 214.897 211.832 213.27 210.704 211.263C209.593 209.257 209.071 207.108 209.239 205.18C209.425 203.079 210.418 201.483 212.034 200.693C212.606 200.408 213.33 200.614 213.633 201.151C213.936 201.688 213.717 202.368 213.145 202.652C211.966 203.237 211.68 204.611 211.613 205.37C211.478 206.871 211.899 208.609 212.808 210.236C213.717 211.864 214.996 213.175 216.394 213.918C217.101 214.297 218.481 214.85 219.659 214.265C220.232 213.981 220.939 214.186 221.258 214.739C221.561 215.277 221.343 215.94 220.77 216.24C220.063 216.588 219.306 216.746 218.515 216.746Z" fill="white"/>
            <path d="M21.7513 219.669L28.1143 198.117L19.1085 201.325L17.4757 189.095L11.0286 210.378L19.8492 207.234L21.7513 219.669Z" fill="white"/>
            <path d="M21.7513 220.775C21.7177 220.775 21.7008 220.775 21.6672 220.775C21.1117 220.744 20.6572 220.349 20.573 219.827L18.8897 208.767L11.4326 211.421C11.0118 211.579 10.5404 211.484 10.2206 211.2C9.90077 210.916 9.7661 210.489 9.88394 210.078L16.3479 188.795C16.4994 188.289 17.0212 187.958 17.5767 187.989C18.1322 188.037 18.5867 188.432 18.654 188.953L20.0849 199.792L27.6935 197.09C28.1143 196.948 28.5856 197.027 28.9054 197.311C29.2253 197.596 29.3599 198.022 29.2421 198.433L22.8792 219.985C22.7445 220.443 22.2732 220.775 21.7513 220.775ZM19.8492 206.128C20.0512 206.128 20.27 206.175 20.4552 206.286C20.7582 206.46 20.977 206.744 21.0275 207.076L22.1217 214.281L26.3636 199.934L19.5125 202.368C19.1759 202.494 18.7887 202.447 18.4857 202.289C18.1827 202.115 17.9639 201.815 17.9302 201.483L17.0212 194.657L12.7961 208.577L19.4284 206.223C19.563 206.16 19.7145 206.128 19.8492 206.128Z" fill="white"/>
            <path d="M172.072 175.854C172.072 175.854 170.573 172.141 168.301 166.832C165.928 161.302 168.806 157.478 172.459 156.767C176.566 155.962 179.091 159.232 179.63 162.645C182.98 161.176 187.272 161.365 188.821 165.031C190.201 168.302 188.383 172.647 182.172 173.848C176.196 174.985 172.072 175.854 172.072 175.854Z" fill="white"/>
            <path d="M172.072 176.96C171.584 176.96 171.146 176.676 170.978 176.249C170.978 176.249 169.479 172.536 167.207 167.243C165.944 164.288 165.944 161.444 167.224 159.217C168.267 157.384 170.085 156.104 172.223 155.677C174.058 155.314 175.809 155.63 177.273 156.578C178.788 157.557 179.916 159.185 180.505 161.144C182.559 160.528 184.629 160.528 186.346 161.16C187.996 161.776 189.242 162.977 189.932 164.62C190.74 166.532 190.605 168.665 189.545 170.482C188.265 172.71 185.723 174.274 182.407 174.922C176.465 176.06 172.341 176.929 172.341 176.945C172.24 176.96 172.156 176.96 172.072 176.96ZM173.688 157.747C173.368 157.747 173.031 157.779 172.695 157.842C171.247 158.126 170.001 159.011 169.294 160.259C168.352 161.903 168.385 164.099 169.395 166.422C171.011 170.182 172.24 173.153 172.812 174.575C174.378 174.243 177.694 173.563 181.936 172.758C184.562 172.252 186.515 171.083 187.474 169.439C188.198 168.191 188.282 166.738 187.743 165.442C187.289 164.367 186.531 163.625 185.471 163.23C184.006 162.677 182.02 162.835 180.135 163.656C179.798 163.799 179.411 163.799 179.074 163.625C178.755 163.467 178.519 163.167 178.468 162.819C178.165 160.907 177.206 159.248 175.91 158.411C175.253 157.968 174.513 157.747 173.688 157.747Z" fill="white"/>
            <path d="M123.306 114.833C118.004 114.833 113.627 110.851 113.492 105.843C113.358 100.755 117.667 96.5361 123.07 96.4097C125.713 96.3307 128.188 97.2472 130.073 98.9536C131.975 100.644 133.053 102.935 133.12 105.4C133.255 110.488 128.962 114.707 123.542 114.833C123.474 114.833 123.39 114.833 123.306 114.833ZM123.306 98.6218C123.239 98.6218 123.188 98.6218 123.121 98.6218C121.135 98.6692 119.266 99.4434 117.903 100.786C116.522 102.145 115.798 103.915 115.849 105.795C115.95 109.651 119.333 112.732 123.491 112.621C127.599 112.526 130.864 109.303 130.763 105.448C130.679 101.64 127.346 98.6218 123.306 98.6218Z" fill="white"/>
            <path d="M77.6878 141.757C77.4858 141.757 77.2838 141.71 77.0986 141.615C74.2706 140.098 72.2338 137.649 71.3585 134.694C70.5 131.74 70.904 128.659 72.5031 126.004C74.1191 123.35 76.7283 121.438 79.8761 120.616C83.0239 119.794 86.3064 120.189 89.1343 121.69C89.7067 121.991 89.8918 122.67 89.572 123.192C89.2522 123.729 88.5283 123.903 87.9729 123.602C85.6835 122.386 83.0239 122.07 80.4989 122.733C77.9739 123.397 75.8529 124.93 74.5568 127.078C71.8803 131.503 73.53 137.159 78.2601 139.671C78.8324 139.972 79.0176 140.651 78.6978 141.172C78.4958 141.552 78.0918 141.757 77.6878 141.757Z" fill="white"/>
            <path d="M144.516 217.836C144.381 217.836 144.247 217.82 144.112 217.773C143.506 217.568 143.186 216.936 143.405 216.351C145.021 212.132 148.303 208.751 152.629 206.839C156.956 204.927 161.82 204.722 166.315 206.239C166.921 206.444 167.241 207.076 167.022 207.661C166.803 208.23 166.13 208.53 165.507 208.324C161.602 207.013 157.376 207.187 153.623 208.846C149.869 210.505 147.024 213.444 145.61 217.109C145.442 217.552 145.004 217.836 144.516 217.836Z" fill="white"/>
            <path d="M360.317 26.9033C359.93 26.9033 359.543 26.7137 359.324 26.3819L346.009 6.67866C345.656 6.15724 345.824 5.47782 346.38 5.14601C346.935 4.8142 347.659 4.97221 348.012 5.49362L361.327 25.1968C361.681 25.7182 361.513 26.3977 360.957 26.7295C360.755 26.8559 360.536 26.9033 360.317 26.9033Z" fill="white"/>
            <path d="M78.5968 193.599C78.4116 193.599 78.2264 193.551 78.0413 193.472L58.9524 183.881C58.3801 183.597 58.1613 182.917 58.4643 182.38C58.7673 181.843 59.4911 181.638 60.0634 181.922L79.1523 191.513C79.7246 191.797 79.9434 192.477 79.6404 193.014C79.4216 193.377 79.0176 193.599 78.5968 193.599Z" fill="white"/>
            <path d="M63.9354 197.754C63.7502 197.754 63.5651 197.707 63.3799 197.628C62.8076 197.343 62.5888 196.664 62.8918 196.127L73.1095 178.209C73.4125 177.672 74.1363 177.466 74.7087 177.751C75.281 178.035 75.4998 178.714 75.1968 179.252L64.9791 197.169C64.7602 197.533 64.3562 197.754 63.9354 197.754Z" fill="white"/>
            <path d="M107.163 218.058C106.877 218.058 106.608 217.963 106.372 217.773C105.884 217.362 105.85 216.667 106.271 216.209L110.244 212.038C110.681 211.579 111.422 211.532 111.91 211.943C112.398 212.354 112.432 213.049 112.011 213.507L108.038 217.678C107.82 217.931 107.483 218.058 107.163 218.058Z" fill="white"/>
            <path d="M94.0164 231.883C93.7303 231.883 93.4609 231.788 93.2253 231.599C92.7371 231.188 92.7034 230.493 93.1243 230.034L97.0969 225.863C97.5346 225.405 98.2752 225.373 98.7634 225.768C99.2516 226.179 99.2852 226.874 98.8644 227.332L94.8918 231.504C94.6561 231.757 94.3363 231.883 94.0164 231.883Z" fill="white"/>
            <path d="M115.159 225.342C115.075 225.342 114.991 225.342 114.923 225.326L109.082 224.188C108.442 224.062 108.038 223.477 108.173 222.877C108.308 222.276 108.931 221.897 109.57 222.024L115.411 223.161C116.051 223.288 116.455 223.872 116.32 224.473C116.203 224.978 115.714 225.342 115.159 225.342Z" fill="white"/>
            <path d="M95.8342 221.565C95.75 221.565 95.6658 221.565 95.5985 221.55L89.7574 220.412C89.1177 220.285 88.7137 219.701 88.8484 219.1C88.9831 218.5 89.6059 218.121 90.2455 218.247L96.0867 219.385C96.7263 219.511 97.1303 220.096 96.9957 220.696C96.8778 221.202 96.3897 221.565 95.8342 221.565Z" fill="white"/>
            <path d="M106.608 234.348C106.119 234.348 105.648 234.048 105.48 233.59L103.611 228.265C103.409 227.68 103.746 227.064 104.369 226.874C104.992 226.685 105.648 227.001 105.85 227.585L107.719 232.91C107.921 233.495 107.584 234.111 106.961 234.301C106.843 234.316 106.725 234.348 106.608 234.348Z" fill="white"/>
            <path d="M100.43 216.746C99.9417 216.746 99.4704 216.446 99.3021 215.988L97.4336 210.663C97.2316 210.078 97.5683 209.462 98.1911 209.273C98.8139 209.083 99.4704 209.399 99.6724 209.984L101.541 215.308C101.743 215.893 101.406 216.509 100.783 216.699C100.666 216.73 100.548 216.746 100.43 216.746Z" fill="white"/>
            <path d="M51.4785 96.9626C51.4449 96.9626 51.4112 96.9626 51.3775 96.9626C50.7379 96.8994 50.2497 96.3622 50.317 95.7617L51.8657 79.9455L34.9988 78.4918C34.3592 78.4286 33.871 77.8914 33.9383 77.291C34.0057 76.6748 34.5612 76.2324 35.2177 76.2956L53.246 77.844C53.8857 77.9072 54.3738 78.4444 54.3065 79.0448L52.6569 95.9672C52.6064 96.536 52.0845 96.9626 51.4785 96.9626Z" fill="white"/>
            <path d="M300.476 68.0004C300.375 68.0004 300.274 67.9846 300.173 67.9688L286.706 64.6191C286.319 64.5243 286.016 64.2557 285.881 63.8923C285.763 63.5447 285.831 63.1496 286.083 62.8494L292.918 54.807L281.185 51.8839C280.562 51.7259 280.175 51.1255 280.343 50.5251C280.511 49.9404 281.134 49.577 281.791 49.735L295.257 53.0847C295.645 53.1795 295.948 53.4481 296.082 53.8116C296.2 54.1592 296.133 54.5542 295.88 54.8544L289.046 62.8968L300.779 65.8199C301.401 65.9779 301.789 66.5783 301.62 67.1788C301.469 67.6686 300.998 68.0004 300.476 68.0004Z" fill="white"/>
            <path d="M166.736 131.329C166.466 131.329 166.197 131.25 165.978 131.076L156.501 123.665C155.996 123.27 155.929 122.575 156.35 122.101C156.77 121.627 157.511 121.564 158.016 121.959L166.584 128.674L173.738 120.632C174.159 120.158 174.9 120.094 175.405 120.49L183.973 127.205L191.127 119.162C191.548 118.688 192.288 118.625 192.793 119.02C193.298 119.415 193.366 120.11 192.945 120.584L185.05 129.48C184.629 129.954 183.889 130.017 183.384 129.622L174.816 122.907L167.661 130.949C167.409 131.202 167.072 131.329 166.736 131.329Z" fill="white"/>
            <path d="M12.7962 166.121C12.2407 166.121 11.7526 165.758 11.6347 165.236C11.5001 164.636 11.9209 164.051 12.5606 163.941L23.4516 161.903L21.2802 151.68C21.1455 151.079 21.5663 150.495 22.206 150.384L33.0971 148.346L30.9256 138.123C30.7909 137.522 31.2117 136.938 31.8514 136.827L42.7425 134.789L40.571 124.566C40.4363 123.966 40.8572 123.381 41.4968 123.27C42.1365 123.144 42.7593 123.539 42.8771 124.139L45.2843 135.453C45.419 136.053 44.9981 136.638 44.3585 136.748L33.4674 138.786L35.6389 149.009C35.7735 149.61 35.3527 150.194 34.713 150.305L23.822 152.343L25.9935 162.566C26.1281 163.167 25.7073 163.751 25.0676 163.862L13.0151 166.121C12.9477 166.121 12.8804 166.121 12.7962 166.121Z" fill="white"/>
            <path d="M244.455 162.456C244.354 162.456 244.253 162.44 244.152 162.424L227.807 158.348C227.184 158.19 226.797 157.589 226.965 156.989L231.308 141.646C231.392 141.362 231.594 141.125 231.864 140.967C232.133 140.825 232.453 140.777 232.756 140.856L249.101 144.933C249.724 145.091 250.111 145.691 249.943 146.292L245.6 161.634C245.448 162.14 244.977 162.456 244.455 162.456ZM229.558 156.483L243.63 159.991L247.367 146.782L233.295 143.274L229.558 156.483Z" fill="white"/>
            <path d="M323.89 214.708C323.52 214.708 323.15 214.629 322.813 214.455C321.669 213.886 321.231 212.559 321.82 211.484C322.106 210.963 322.594 210.584 323.2 210.41C323.806 210.236 324.429 210.284 324.985 210.552C325.54 210.821 325.944 211.279 326.129 211.848C326.314 212.401 326.264 213.001 325.978 213.523C325.557 214.281 324.749 214.708 323.89 214.708ZM323.89 212.496V212.512L324.934 213.001L323.89 212.496Z" fill="white"/>
            <path d="M337.997 75.7268L327.493 66.7995L337.811 65.8357L336.835 57.019H346.228L346.161 47.2385L356.665 56.1658L337.997 75.7268Z" fill="white"/>
            <path d="M337.996 76.833C337.71 76.833 337.424 76.7382 337.205 76.5486L326.701 67.6213C326.348 67.3211 326.23 66.8629 326.365 66.452C326.516 66.0412 326.903 65.741 327.375 65.6936L336.498 64.8404L335.64 57.1298C335.606 56.8138 335.707 56.5135 335.943 56.2765C336.162 56.0395 336.481 55.9131 336.818 55.9131H345.033L344.982 47.2387C344.982 46.7962 345.252 46.4012 345.689 46.2274C346.11 46.0536 346.615 46.1168 346.952 46.417L357.456 55.3443C357.944 55.7551 357.977 56.4503 357.54 56.9086L338.872 76.4696C338.67 76.6908 338.367 76.8172 338.047 76.833C338.047 76.833 338.03 76.833 337.996 76.833ZM330.253 67.6529L337.912 74.1627L354.998 56.2449L347.356 49.7351L347.406 57.0034C347.406 57.3036 347.288 57.588 347.07 57.7934C346.851 57.9988 346.548 58.1252 346.228 58.1252H338.148L338.99 65.7252C339.023 66.0254 338.922 66.3098 338.737 66.5469C338.535 66.7681 338.249 66.9261 337.946 66.9419L330.253 67.6529Z" fill="white"/>
            <path d="M362.001 183.944C361.933 183.944 361.883 183.944 361.816 183.929L346.161 181.558C345.723 181.495 345.353 181.195 345.218 180.8L340.421 166.611C340.303 166.248 340.387 165.837 340.656 165.553C340.926 165.268 341.33 165.126 341.734 165.189L357.388 167.575C357.826 167.638 358.18 167.938 358.314 168.333L363.112 182.522C363.23 182.886 363.145 183.296 362.876 183.581C362.674 183.802 362.337 183.944 362.001 183.944ZM347.255 179.489L360.301 181.464L356.294 169.629L343.249 167.654L347.255 179.489Z" fill="white"/>
            <path d="M237.923 29.4474L263.408 26.3663C265.193 26.1451 266.927 28.0885 267.28 30.7114C267.634 33.3185 266.489 35.6254 264.705 35.8308L239.219 38.9119C237.435 39.1331 235.701 37.1896 235.347 34.5667C234.994 31.9597 236.139 29.6686 237.923 29.4474Z" fill="white"/>
            <path d="M238.95 40.0493C236.644 40.0493 234.607 37.8057 234.17 34.7246C233.968 33.2551 234.17 31.8015 234.759 30.648C235.415 29.3524 236.509 28.515 237.772 28.357L263.257 25.2759C265.732 24.9915 268.004 27.2983 268.459 30.569C268.661 32.0385 268.459 33.4921 267.87 34.6456C267.213 35.9412 266.119 36.7786 264.856 36.9366L239.371 40.0177C239.236 40.0335 239.085 40.0493 238.95 40.0493ZM263.678 27.4564C263.644 27.4564 263.594 27.4564 263.56 27.4564L238.075 30.5374C237.637 30.5848 237.199 30.9641 236.896 31.5803C236.509 32.3545 236.375 33.3815 236.509 34.4244C236.795 36.51 238.092 37.9163 239.068 37.8215L264.553 34.7404C264.991 34.693 265.429 34.3138 265.732 33.6975C266.119 32.9233 266.254 31.8963 266.119 30.8535C265.85 28.8468 264.638 27.4564 263.678 27.4564Z" fill="white"/>
            <path d="M267.297 30.7111C267.651 33.334 266.506 35.625 264.722 35.8305C262.937 36.0517 261.203 34.1082 260.85 31.4853C260.496 28.8624 261.641 26.5714 263.425 26.366C265.21 26.1606 266.944 28.104 267.297 30.7111Z" fill="white"/>
            <path d="M264.452 36.9682C263.325 36.9682 262.214 36.431 261.338 35.4514C260.463 34.4718 259.874 33.1129 259.672 31.6435C259.47 30.174 259.672 28.7204 260.261 27.567C260.917 26.2713 262.012 25.4339 263.274 25.2759C265.748 24.9915 268.021 27.2983 268.475 30.569C268.677 32.0385 268.475 33.4921 267.886 34.6456C267.23 35.9412 266.136 36.7786 264.873 36.9366C264.739 36.9524 264.587 36.9682 264.452 36.9682ZM263.678 27.4564C263.644 27.4564 263.594 27.4564 263.56 27.4564C263.123 27.5038 262.685 27.883 262.382 28.4992C261.995 29.2734 261.86 30.3004 261.995 31.3433C262.146 32.3861 262.55 33.3499 263.139 34.0136C263.594 34.535 264.133 34.8036 264.553 34.7404C264.991 34.693 265.429 34.3138 265.732 33.6975C266.119 32.9233 266.253 31.8963 266.119 30.8535C265.85 28.8468 264.638 27.4564 263.678 27.4564Z" fill="white"/>
            <path d="M296.469 141.599C296.907 141.362 297.883 141.188 297.883 141.188L321.483 137.838L305.913 154.84L305.896 154.808C305.593 155.187 305.239 155.519 304.785 155.74C302.125 157.115 298.102 155.077 295.813 151.174C293.523 147.271 293.81 142.989 296.469 141.599Z" fill="white"/>
            <path d="M302.95 157.273C302.394 157.273 301.805 157.194 301.216 157.036C298.758 156.372 296.351 154.382 294.786 151.711C292.126 147.208 292.614 142.342 295.897 140.635C296.452 140.351 297.378 140.161 297.647 140.098L321.298 136.748C321.786 136.685 322.274 136.906 322.51 137.301C322.746 137.712 322.695 138.202 322.375 138.565L306.805 155.567C306.737 155.63 306.67 155.693 306.603 155.74C306.216 156.167 305.812 156.483 305.357 156.704C304.633 157.083 303.825 157.273 302.95 157.273ZM297.041 142.579C294.988 143.653 294.904 147.335 296.856 150.653C298.119 152.802 300.038 154.429 301.889 154.935C302.512 155.108 303.421 155.219 304.246 154.792C304.499 154.666 304.734 154.461 304.987 154.145C305.071 154.05 305.155 153.971 305.256 153.908L318.537 139.403L298.085 142.31C297.748 142.342 297.21 142.484 297.041 142.579Z" fill="white"/>
            <path d="M305.458 146.165C307.764 150.068 307.461 154.35 304.801 155.74C302.142 157.115 298.118 155.077 295.829 151.174C293.523 147.271 293.826 142.989 296.486 141.599C299.128 140.224 303.152 142.263 305.458 146.165Z" fill="white"/>
            <path d="M302.95 157.273C302.394 157.273 301.805 157.194 301.216 157.036C298.758 156.373 296.351 154.382 294.786 151.711C292.126 147.208 292.614 142.342 295.897 140.635C297.546 139.782 299.6 139.877 301.654 140.935C303.539 141.899 305.256 143.574 306.485 145.644C309.144 150.147 308.656 155.014 305.374 156.72C304.633 157.084 303.825 157.273 302.95 157.273ZM298.321 142.279C297.849 142.279 297.412 142.373 297.041 142.579C294.988 143.637 294.904 147.335 296.839 150.653C298.102 152.802 300.021 154.429 301.873 154.935C302.495 155.109 303.404 155.219 304.229 154.793C306.283 153.734 306.367 150.037 304.431 146.718C303.421 145.012 302.041 143.653 300.543 142.895C299.752 142.484 298.994 142.279 298.321 142.279Z" fill="white"/>
            <path d="M127.077 49.7348L139.416 48.929L146.317 58.5515L140.914 68.9798L128.575 69.7856L121.656 60.1631L127.077 49.7348Z" fill="white"/>
            <path d="M128.575 70.8917C128.188 70.8917 127.817 70.7021 127.598 70.4019L120.68 60.7794C120.444 60.4476 120.411 60.0368 120.596 59.6734L126.016 49.245C126.201 48.8816 126.572 48.6604 126.992 48.6288L139.331 47.823C139.769 47.7914 140.156 47.981 140.392 48.3128L147.31 57.9353C147.546 58.2671 147.579 58.6779 147.394 59.0413L141.974 69.4697C141.789 69.8331 141.419 70.0543 140.998 70.0859L128.659 70.8917C128.625 70.8917 128.608 70.8917 128.575 70.8917ZM123.02 60.0684L129.181 68.6322L140.156 67.9054L144.987 58.6147L138.826 50.0509L127.851 50.7777L123.02 60.0684Z" fill="white"/>
            <path d="M133.995 60.4634C133.608 60.4634 133.238 60.2738 133.019 59.9736L126.1 50.3511C125.73 49.8455 125.881 49.1502 126.42 48.8184C126.959 48.4866 127.699 48.613 128.053 49.1186L134.584 58.2039L146.233 57.4455C146.889 57.3981 147.445 57.8563 147.495 58.4725C147.546 59.0887 147.058 59.6102 146.401 59.6576L134.062 60.4634C134.046 60.4634 134.012 60.4634 133.995 60.4634Z" fill="white"/>
            <path d="M128.574 70.8918C128.406 70.8918 128.221 70.8602 128.053 70.7812C127.463 70.5126 127.228 69.849 127.514 69.296L132.934 58.8676C133.22 58.3146 133.927 58.0934 134.517 58.362C135.106 58.6306 135.341 59.2942 135.055 59.8473L129.635 70.2756C129.433 70.6706 129.012 70.8918 128.574 70.8918Z" fill="white"/>
            <path d="M1.13054 109.572L1.09688 109.54C1.02954 109.714 0.945377 109.872 0.844378 110.03C0.709713 110.235 0.575046 110.441 0.389881 110.614C0.238382 110.757 -0.014117 110.915 -0.232949 111.041C-0.333948 111.104 -0.434945 111.167 -0.552777 111.215C-0.653776 111.262 -0.737943 111.31 -0.737943 111.31L-1.24294 111.436C-1.3271 111.452 -1.39444 111.483 -1.49544 111.499L-15.3997 115.007L-11.528 101.987C-11.5112 101.908 -11.4775 101.829 -11.4607 101.75L-11.326 101.276L-11.2924 101.308C-11.225 101.134 -11.1409 100.976 -11.0399 100.818C-10.9052 100.613 -10.7705 100.407 -10.5854 100.233C-10.4339 100.091 -10.1814 99.9332 -9.96253 99.8068C-9.86153 99.7436 -9.76054 99.6804 -9.64271 99.633C-9.52487 99.5856 -9.44071 99.554 -9.44071 99.554L-8.93571 99.4276C-8.85154 99.4118 -8.78421 99.3802 -8.70004 99.3644L5.20418 95.8567L1.33254 108.876C1.31571 108.955 1.28204 109.034 1.26521 109.113L1.13054 109.572Z" fill="white"/>
            <path d="M-15.3995 116.113C-15.7025 116.113 -16.0055 116.002 -16.2412 115.781C-16.5442 115.497 -16.6452 115.086 -16.5442 114.707L-12.6725 101.687C-12.6725 101.671 -12.622 101.529 -12.622 101.513L-12.4705 100.976C-12.42 100.834 -12.3527 100.707 -12.2685 100.597C-12.2012 100.47 -12.1339 100.36 -12.0665 100.249C-11.8982 99.9648 -11.6962 99.712 -11.4774 99.4907C-11.4605 99.4749 -11.4437 99.4591 -11.4437 99.4433C-11.2417 99.2537 -10.9724 99.0799 -10.602 98.8587C-10.4169 98.7481 -10.299 98.6849 -10.1812 98.6375L-10.0634 98.5743C-9.97921 98.5269 -9.89504 98.4953 -9.81088 98.4795L-9.30588 98.3531C-9.15439 98.3057 -9.07022 98.2899 -8.96922 98.2741L4.834 94.7822C5.238 94.6874 5.67566 94.798 5.97866 95.0666C6.28165 95.351 6.38265 95.7618 6.28165 96.141L2.41002 109.161C2.41002 109.176 2.35952 109.319 2.35952 109.334L2.19119 109.872C2.14069 110.014 2.07336 110.14 1.98919 110.251C1.92186 110.377 1.85452 110.488 1.78719 110.598C1.61886 110.883 1.41686 111.136 1.19803 111.341C1.1812 111.357 1.16436 111.373 1.14753 111.389C0.945533 111.562 0.693035 111.752 0.305872 111.973C0.120706 112.084 0.00287408 112.147 -0.114958 112.21L-0.182293 112.289C-0.266459 112.337 -0.350624 112.368 -0.43479 112.384L-0.939788 112.51C-1.09129 112.558 -1.17545 112.574 -1.27645 112.589L-15.0797 116.081C-15.1807 116.097 -15.2817 116.113 -15.3995 116.113ZM-10.5515 102.177L-10.3664 102.224L-13.6993 113.443L-1.79828 110.44L-1.24278 111.452L-1.54578 110.377L-0.939788 110.156C-0.619957 109.966 -0.48529 109.887 -0.451623 109.856L-0.43479 109.84C-0.350624 109.761 -0.266458 109.65 -0.165459 109.492C-0.0812931 109.366 -0.0307924 109.255 0.0197071 109.145C0.0365403 109.097 0.0533719 109.066 0.0870382 109.018L0.154373 108.813L0.238537 108.829C0.289037 108.781 0.322703 108.734 0.373203 108.702L0.188037 108.655L3.52101 97.4367L-9.23855 100.707C-9.57521 100.897 -9.69305 100.992 -9.72671 101.023L-9.74355 101.039C-9.82771 101.118 -9.91188 101.229 -10.0129 101.387C-10.097 101.513 -10.1475 101.624 -10.198 101.734C-10.2149 101.782 -10.2317 101.813 -10.2654 101.861L-10.3327 102.066L-10.4169 102.05C-10.4505 102.098 -10.501 102.145 -10.5515 102.177Z" fill="white"/>
            <path d="M0.390208 111.736C0.0872109 111.736 -0.215787 111.626 -0.451451 111.404C-0.905947 110.978 -0.905947 110.267 -0.451451 109.84C0.423875 109.018 0.28921 107.723 0.120878 107.012C-0.198953 105.621 -1.09111 104.168 -2.4041 102.919C-3.71709 101.687 -5.24891 100.818 -6.73023 100.518C-7.48772 100.36 -8.86805 100.218 -9.74337 101.039C-10.2147 101.466 -10.9554 101.466 -11.4099 101.039C-11.8644 100.613 -11.8644 99.9016 -11.4099 99.475C-10.1642 98.3215 -8.32939 97.9265 -6.2084 98.3689C-4.28942 98.7797 -2.33677 99.8384 -0.720782 101.371C0.895204 102.904 2.02303 104.752 2.42702 106.554C2.88152 108.544 2.44386 110.267 1.1982 111.42C0.979369 111.626 0.693206 111.736 0.390208 111.736Z" fill="white"/>
            <path d="M248.478 73.7358L232.958 89.7417L242.249 90.6582L237.957 101.892L253.427 86.1392L244.337 85.2544L248.478 73.7358Z" fill="white"/>
            <path d="M237.957 102.998C237.755 102.998 237.536 102.951 237.351 102.84C236.863 102.572 236.661 102.019 236.846 101.529L240.633 91.6221L232.839 90.8479C232.402 90.8005 232.015 90.5319 231.863 90.1368C231.712 89.7418 231.796 89.3152 232.099 88.9992L247.619 72.9933C247.989 72.5983 248.612 72.5193 249.084 72.7879C249.572 73.0565 249.791 73.5937 249.605 74.0994L245.936 84.3065L253.561 85.0649C253.999 85.1123 254.386 85.3809 254.537 85.7759C254.689 86.1709 254.605 86.6133 254.302 86.9135L238.832 102.651C238.596 102.872 238.277 102.998 237.957 102.998ZM235.398 88.8728L242.367 89.568C242.721 89.5996 243.057 89.7892 243.242 90.0736C243.428 90.358 243.478 90.7215 243.36 91.0375L241.037 97.1365L250.986 87.0083L244.236 86.3447C243.882 86.3131 243.562 86.1235 243.36 85.8391C243.158 85.5547 243.125 85.2071 243.242 84.8911L245.582 78.3813L235.398 88.8728Z" fill="white"/>
            <path d="M101.103 276.156C101.103 276.156 97.2648 273.991 91.6931 270.973C85.8856 267.829 85.5994 262.899 88.1413 260.071C90.9861 256.879 95.3627 258.049 98.1907 260.561C99.9582 257.29 103.645 254.809 107.466 256.911C110.883 258.775 112.398 263.5 108.072 268.303C103.931 272.901 101.103 276.156 101.103 276.156Z" fill="white"/>
            <path d="M101.103 277.262C100.901 277.262 100.682 277.215 100.497 277.104C100.463 277.088 96.6085 274.908 91.1209 271.937C88.0404 270.278 86.0709 267.924 85.5827 265.301C85.1788 263.168 85.7847 261.003 87.2661 259.36C88.5286 257.938 90.1782 257.148 92.0299 257.037C93.9657 256.927 96.053 257.59 97.9046 258.87C99.184 257.085 100.901 255.789 102.769 255.284C104.554 254.794 106.389 255.015 108.089 255.947C110.058 257.022 111.422 258.87 111.809 261.003C112.28 263.626 111.287 266.455 108.981 269.014C104.874 273.549 102.046 276.82 102.012 276.851C101.793 277.12 101.44 277.262 101.103 277.262ZM92.417 259.25C92.3329 259.25 92.2319 259.25 92.1477 259.25C90.9357 259.313 89.8921 259.834 89.0504 260.782C88.0236 261.92 87.6027 263.437 87.8889 264.922C88.2592 266.881 89.8247 268.682 92.2824 270.025C96.2718 272.174 99.386 273.912 100.834 274.718C101.894 273.502 104.217 270.863 107.18 267.576C109.015 265.538 109.839 263.342 109.469 261.383C109.2 259.897 108.257 258.618 106.877 257.859C105.732 257.227 104.571 257.085 103.409 257.401C101.793 257.843 100.244 259.218 99.2513 261.051C99.083 261.367 98.7631 261.572 98.4096 261.635C98.0393 261.699 97.669 261.588 97.3997 261.351C95.8678 260.024 94.033 259.25 92.417 259.25Z" fill="white"/>
            <path d="M6.85414 46.6855C6.78681 46.6855 6.71948 46.6855 6.65215 46.6697C1.85469 45.8954 -2.33678 43.4148 -5.14793 39.6859C-7.95907 35.9569 -9.05323 31.4222 -8.2284 26.9033C-8.11057 26.3028 -7.50457 25.892 -6.86491 26.0026C-6.22525 26.1132 -5.78759 26.6821 -5.90542 27.2825C-6.62924 31.201 -5.66975 35.1511 -3.21211 38.406C-0.75446 41.6609 2.88151 43.8098 7.07298 44.4892C7.71264 44.5998 8.1503 45.1686 8.03247 45.769C7.91463 46.3063 7.40964 46.6855 6.85414 46.6855Z" fill="white"/>
            <path d="M299.465 21.9578C298.977 21.9578 298.506 21.6576 298.354 21.1993C298.152 20.6147 298.489 19.9985 299.095 19.7931C301.536 19.0347 303.505 17.423 304.65 15.2742C305.794 13.1253 305.98 10.6762 305.172 8.38514C304.364 6.09407 302.647 4.24542 300.357 3.17098C298.068 2.09655 295.459 1.92274 293.018 2.68117C292.395 2.87077 291.739 2.55476 291.537 1.98595C291.335 1.40133 291.671 0.785109 292.277 0.579702C295.307 -0.368327 298.556 -0.14712 301.418 1.19592C304.279 2.53896 306.4 4.84583 307.41 7.68992C308.42 10.534 308.185 13.5835 306.754 16.2696C305.323 18.9557 302.865 20.9465 299.836 21.8946C299.718 21.942 299.583 21.9578 299.465 21.9578Z" fill="white"/>
            <path d="M129.921 23.443C129.618 23.443 129.332 23.3324 129.097 23.127C128.625 22.7004 128.625 22.0052 129.08 21.5628L146.99 4.24543C147.445 3.80302 148.185 3.80302 148.657 4.22963C149.128 4.65625 149.128 5.35147 148.674 5.79388L130.763 23.1112C130.544 23.3166 130.224 23.443 129.921 23.443Z" fill="white"/>
            <path d="M28.3666 300.583C28.1646 300.157 28.0299 299.224 28.0299 299.224L26.2793 276.883L43.1293 292.746L43.0957 292.762C43.466 293.078 43.8027 293.441 44.0046 293.868C45.2671 296.459 42.7927 300.078 38.4665 301.926C34.1572 303.775 29.6291 303.175 28.3666 300.583Z" fill="white"/>
            <path d="M33.5007 304.123C30.6391 304.123 28.2656 303.048 27.2893 301.042C27.0199 300.504 26.8853 299.62 26.8516 299.367L25.0841 276.978C25.0505 276.519 25.3198 276.077 25.7743 275.887C26.2288 275.698 26.7506 275.793 27.1041 276.109L43.9541 291.972C44.0215 292.035 44.072 292.099 44.1225 292.178C44.5433 292.573 44.8463 292.983 45.0651 293.41C46.6306 296.602 43.9373 300.789 38.9547 302.938C37.103 303.728 35.2177 304.123 33.5007 304.123ZM29.4439 300.125C30.4202 302.132 34.3256 302.495 37.9952 300.915C41.648 299.351 43.9205 296.333 42.9441 294.326C42.8263 294.089 42.6243 293.852 42.3045 293.584C42.2203 293.505 42.1362 293.41 42.0688 293.315L27.6764 279.774L29.2083 299.146C29.2588 299.446 29.3598 299.967 29.4439 300.125Z" fill="white"/>
            <path d="M33.9048 292.525C38.231 290.677 42.7423 291.277 44.0216 293.868C45.2841 296.46 42.8096 300.062 38.4835 301.927C34.1573 303.775 29.646 303.175 28.3667 300.583C27.1042 297.992 29.5787 294.374 33.9048 292.525Z" fill="white"/>
            <path d="M33.5176 304.107C33.0463 304.107 32.575 304.075 32.1205 304.012C29.7975 303.712 28.0973 302.653 27.3062 301.042C26.515 299.43 26.7843 297.534 28.0637 295.67C29.2251 293.979 31.1273 292.494 33.4166 291.514C38.3992 289.381 43.5334 290.203 45.082 293.41C45.8732 295.022 45.6038 296.918 44.3245 298.782C43.163 300.473 41.2609 301.958 38.9716 302.938C37.1704 303.696 35.2851 304.107 33.5176 304.107ZM38.8874 292.557C37.5071 292.557 35.9248 292.873 34.3929 293.536C32.5076 294.342 30.959 295.527 30.0331 296.886C29.2083 298.087 29.0063 299.24 29.444 300.141C29.8816 301.042 30.9421 301.642 32.4403 301.848C34.1236 302.069 36.0931 301.753 37.9784 300.931C39.8637 300.125 41.4124 298.94 42.3382 297.581C43.163 296.396 43.365 295.243 42.9274 294.342C42.3719 293.173 40.8064 292.557 38.8874 292.557Z" fill="white"/>
            <path d="M360.62 296.096C360.233 296.096 359.846 295.906 359.627 295.575L345.706 274.955C345.353 274.434 345.521 273.754 346.077 273.422C346.632 273.091 347.356 273.249 347.709 273.77L361.63 294.39C361.984 294.911 361.816 295.59 361.26 295.922C361.058 296.049 360.839 296.096 360.62 296.096Z" fill="white"/>
            <path d="M299.448 291.388C298.96 291.388 298.489 291.087 298.337 290.629C298.135 290.045 298.472 289.428 299.078 289.239C304.498 287.548 307.444 282.018 305.643 276.93C304.768 274.465 302.916 272.459 300.441 271.305C297.967 270.136 295.156 269.946 292.53 270.768C291.907 270.958 291.25 270.642 291.048 270.073C290.846 269.488 291.183 268.872 291.789 268.682C295.004 267.671 298.455 267.908 301.502 269.33C304.549 270.752 306.804 273.217 307.882 276.235C308.959 279.269 308.707 282.492 307.192 285.352C305.677 288.212 303.051 290.329 299.835 291.34C299.701 291.372 299.566 291.388 299.448 291.388Z" fill="white"/>
            <path d="M129.888 292.209C129.585 292.209 129.299 292.098 129.063 291.893C128.592 291.466 128.592 290.771 129.046 290.329L147.024 272.948C147.478 272.506 148.219 272.49 148.69 272.932C149.162 273.359 149.162 274.054 148.707 274.497L130.729 291.877C130.494 292.098 130.191 292.209 129.888 292.209Z" fill="white"/>
            <path d="M197.59 48.2657C197.254 48.2657 196.934 48.1393 196.698 47.8707L192.911 43.6836C192.49 43.2254 192.557 42.5144 193.045 42.1193C193.55 41.7243 194.291 41.7875 194.712 42.2457L198.499 46.4329C198.92 46.8911 198.853 47.6021 198.364 47.9971C198.129 48.1709 197.86 48.2657 197.59 48.2657Z" fill="white"/>
            <path d="M185.05 34.4086C184.713 34.4086 184.393 34.2821 184.157 34.0135L180.37 29.8264C179.949 29.3682 180.017 28.6572 180.505 28.2622C180.993 27.8671 181.75 27.9304 182.171 28.3886L185.959 32.5757C186.379 33.0339 186.312 33.7449 185.824 34.1399C185.588 34.3296 185.319 34.4086 185.05 34.4086Z" fill="white"/>
            <path d="M185.185 50.3831C185.05 50.3831 184.915 50.3673 184.781 50.3199C184.175 50.1145 183.855 49.4825 184.074 48.9137L186.043 43.7469C186.262 43.1781 186.935 42.8779 187.541 43.0833C188.147 43.2887 188.467 43.9207 188.248 44.4895L186.279 49.6563C186.127 50.1145 185.673 50.3831 185.185 50.3831Z" fill="white"/>
            <path d="M191.699 33.271C191.565 33.271 191.43 33.2552 191.295 33.2078C190.689 33.0024 190.369 32.3704 190.588 31.8016L192.558 26.6348C192.776 26.066 193.45 25.7658 194.056 25.9712C194.662 26.1766 194.982 26.8086 194.763 27.3775L192.793 32.5442C192.625 32.9866 192.171 33.271 191.699 33.271Z" fill="white"/>
            <path d="M177.021 41.3767C176.465 41.3767 175.96 40.9974 175.859 40.476C175.741 39.8756 176.162 39.291 176.802 39.1962L182.559 38.2166C183.198 38.106 183.821 38.501 183.922 39.1014C184.04 39.7018 183.619 40.2864 182.98 40.3812L177.223 41.3609C177.155 41.3609 177.088 41.3767 177.021 41.3767Z" fill="white"/>
            <path d="M196.076 38.1059C195.52 38.1059 195.015 37.7267 194.914 37.2053C194.797 36.6049 195.218 36.0202 195.857 35.9254L201.614 34.9458C202.254 34.8352 202.877 35.2302 202.978 35.8306C203.095 36.431 202.675 37.0157 202.035 37.1105L196.278 38.0901C196.211 38.1059 196.143 38.1059 196.076 38.1059Z" fill="white"/>
            <path d="M280.276 191.165C279.855 191.165 279.451 190.96 279.232 190.596L270.95 176.36C270.63 175.823 270.849 175.159 271.422 174.859C271.994 174.559 272.701 174.764 273.021 175.301L280.747 188.558L294.87 181.306C295.442 181.005 296.149 181.211 296.469 181.748C296.789 182.285 296.57 182.949 295.998 183.249L280.831 191.023C280.663 191.118 280.461 191.165 280.276 191.165Z" fill="white"/>
            <path d="M236.375 268.714C236.358 268.714 236.358 268.714 236.375 268.714C235.718 268.714 235.196 268.208 235.196 267.592L235.331 253.861C235.331 253.482 235.533 253.135 235.87 252.945C236.206 252.74 236.627 252.724 236.997 252.866L247.569 257.337L247.687 245.298C247.687 244.697 248.225 244.207 248.865 244.207C248.865 244.207 248.865 244.207 248.882 244.207C249.538 244.207 250.06 244.713 250.043 245.329L249.909 259.076C249.909 259.455 249.706 259.802 249.37 259.992C249.033 260.197 248.612 260.229 248.242 260.071L237.671 255.599L237.553 267.639C237.536 268.224 237.014 268.714 236.375 268.714Z" fill="white"/>
            <path d="M293.085 113.632C292.816 113.632 292.564 113.553 292.345 113.395L283.221 106.538C282.716 106.159 282.632 105.463 283.036 104.989C283.44 104.515 284.181 104.436 284.686 104.815L292.883 110.993L299.415 103.33C299.617 103.093 299.903 102.951 300.206 102.919C300.509 102.888 300.829 102.967 301.064 103.156L309.262 109.334L315.793 101.671C316.197 101.197 316.938 101.118 317.443 101.497C317.948 101.877 318.032 102.572 317.628 103.046L310.356 111.578C310.154 111.799 309.868 111.957 309.565 111.989C309.262 112.021 308.942 111.941 308.707 111.752L300.509 105.574L293.978 113.237C293.776 113.474 293.489 113.616 293.186 113.648C293.17 113.632 293.119 113.632 293.085 113.632Z" fill="white"/>
            <path d="M303.068 235.422C302.63 235.422 302.226 235.201 302.007 234.806L297.126 225.705L287.413 230.287C286.824 230.556 286.117 230.334 285.831 229.797L280.949 220.68L271.236 225.262C270.647 225.531 269.94 225.326 269.654 224.773L264.772 215.672L255.059 220.254C254.47 220.522 253.763 220.317 253.477 219.764C253.191 219.227 253.41 218.547 253.999 218.279L264.755 213.191C265.328 212.906 266.052 213.128 266.338 213.681L271.219 222.798L280.932 218.215C281.504 217.931 282.228 218.152 282.514 218.705L287.396 227.806L297.109 223.224C297.698 222.94 298.388 223.161 298.691 223.714L304.111 233.81C304.398 234.348 304.179 235.027 303.59 235.296C303.438 235.39 303.253 235.422 303.068 235.422Z" fill="white"/>
            <path d="M41.5638 252.139C40.6548 252.139 39.7458 251.949 38.8873 251.57C37.3555 250.891 36.2109 249.706 35.6217 248.221C35.4029 247.652 35.7227 247.004 36.3287 246.798C36.9347 246.593 37.608 246.893 37.8437 247.462C38.1972 248.394 38.921 249.137 39.8805 249.564C40.84 249.99 41.9173 250.038 42.9105 249.69C44.9641 248.995 46.0246 246.862 45.2839 244.934C45.0651 244.365 45.3849 243.717 45.9909 243.512C46.5969 243.307 47.2703 243.607 47.5059 244.176C48.6843 247.257 46.9841 250.654 43.7185 251.76C43.0115 252.013 42.2876 252.139 41.5638 252.139Z" fill="white"/>
            <path d="M46.395 245.661C45.9068 245.661 45.4523 245.377 45.284 244.934C44.1898 242.09 41.7659 240.842 39.9142 240.273C37.3051 239.483 34.2414 239.61 31.2956 240.605C30.6896 240.81 30.0163 240.51 29.7806 239.941C29.5618 239.373 29.8816 238.74 30.4876 238.519C33.9216 237.35 37.5239 237.224 40.638 238.156C43.9542 239.151 46.395 241.284 47.506 244.16C47.7248 244.729 47.405 245.377 46.799 245.582C46.6643 245.645 46.5297 245.661 46.395 245.661Z" fill="white"/>
            <path d="M36.7328 248.947C36.2447 248.947 35.7902 248.663 35.6218 248.221C34.5108 245.345 34.9317 242.232 36.8002 239.483C38.5508 236.907 41.4125 234.838 44.8464 233.684C45.4524 233.479 46.1257 233.779 46.3614 234.348C46.5802 234.917 46.2604 235.564 45.6544 235.77C42.7086 236.765 40.2678 238.519 38.7865 240.684C37.7428 242.216 36.7328 244.634 37.827 247.478C38.0458 248.047 37.726 248.695 37.12 248.9C37.0022 248.916 36.8675 248.947 36.7328 248.947Z" fill="white"/>
            <path d="M45.2503 235.817C44.7621 235.817 44.3076 235.533 44.1393 235.09C43.9204 234.522 44.2403 233.89 44.8463 233.668C46.5632 233.084 48.3644 232.815 50.1656 232.847C50.822 232.863 51.327 233.368 51.327 233.969C51.3102 234.585 50.7884 235.059 50.1319 235.059C48.6169 235.027 47.0851 235.264 45.6543 235.754C45.5196 235.801 45.3849 235.817 45.2503 235.817Z" fill="white"/>
            <path d="M27.2054 257.005C26.2964 257.005 25.3874 256.816 24.5289 256.437C22.9971 255.757 21.8525 254.572 21.2633 253.087C21.0445 252.518 21.3643 251.87 21.9703 251.665C22.5763 251.46 23.2496 251.76 23.4853 252.329C23.8388 253.261 24.5626 254.003 25.5221 254.43C26.4816 254.857 27.5589 254.904 28.5521 254.556C30.6057 253.861 31.6662 251.728 30.9255 249.8C30.7067 249.232 31.0265 248.6 31.6325 248.378C32.2385 248.173 32.9287 248.473 33.1475 249.042C34.3258 252.123 32.6257 255.52 29.3601 256.626C28.6531 256.879 27.9292 257.005 27.2054 257.005Z" fill="white"/>
            <path d="M32.0361 250.543C31.5479 250.543 31.0934 250.259 30.9251 249.817C29.831 246.973 27.407 245.724 25.5553 245.155C22.9462 244.365 19.8825 244.492 16.9367 245.487C16.3307 245.693 15.6574 245.392 15.4217 244.824C15.2029 244.255 15.5227 243.623 16.1287 243.402C19.5627 242.232 23.165 242.106 26.2792 243.038C29.5953 244.034 32.0361 246.167 33.1471 249.042C33.3659 249.611 33.0461 250.259 32.4401 250.464C32.3054 250.512 32.1708 250.543 32.0361 250.543Z" fill="white"/>
            <path d="M22.3742 253.814C21.886 253.814 21.4315 253.53 21.2632 253.087C20.1522 250.212 20.573 247.099 22.4415 244.35C24.1922 241.774 27.0538 239.704 30.4878 238.551C31.0938 238.345 31.7671 238.646 32.0028 239.214C32.2216 239.783 31.9018 240.431 31.2958 240.636C28.35 241.632 25.9091 243.386 24.4278 245.55C23.3842 247.083 22.3742 249.501 23.4683 252.345C23.6872 252.913 23.3673 253.561 22.7613 253.767C22.6435 253.798 22.5088 253.814 22.3742 253.814Z" fill="white"/>
            <path d="M12.2576 247.921C11.9209 247.921 11.6011 247.794 11.3654 247.541C10.9446 247.083 10.9951 246.388 11.4833 245.977C12.8636 244.855 14.4291 244.002 16.1461 243.418C16.7521 243.212 17.4422 243.512 17.6611 244.081C17.8799 244.65 17.5601 245.282 16.9541 245.503C15.5232 245.993 14.2102 246.72 13.0319 247.652C12.7963 247.826 12.5269 247.921 12.2576 247.921Z" fill="white"/>
            <path d="M207.102 107.912C206.866 107.912 206.647 107.881 206.412 107.818C205.2 107.454 204.526 106.238 204.913 105.1C205.301 103.962 206.58 103.33 207.792 103.694C209.004 104.057 209.677 105.274 209.29 106.411C208.987 107.328 208.078 107.912 207.102 107.912ZM207.119 105.7C207.102 105.7 207.068 105.716 207.068 105.732L206.782 106.759L207.119 105.7Z" fill="white"/>
            <path d="M203.146 261.477C202.91 261.477 202.674 261.446 202.439 261.367C201.21 261.003 200.52 259.755 200.907 258.602C201.092 258.033 201.513 257.575 202.068 257.306C202.624 257.037 203.264 256.99 203.853 257.164C204.442 257.338 204.93 257.733 205.233 258.254C205.519 258.775 205.57 259.376 205.385 259.929C205.199 260.498 204.779 260.956 204.223 261.224C203.886 261.398 203.516 261.477 203.146 261.477ZM203.146 259.265L202.792 260.324L203.146 259.265Z" fill="white"/>
            <path d="M82.9402 88.1777C82.7046 88.1777 82.4689 88.1461 82.2501 88.0829C81.6609 87.9091 81.1896 87.5298 80.9034 87.0242C80.6173 86.5186 80.5668 85.934 80.7519 85.381C80.9371 84.828 81.3411 84.3855 81.8798 84.1169C82.4184 83.8483 83.0413 83.8009 83.6304 83.9747C84.2196 84.1485 84.6909 84.5278 84.9771 85.0334C85.2632 85.539 85.3137 86.1236 85.1286 86.6766C84.9434 87.2296 84.5394 87.6721 84.0007 87.9407C83.6641 88.0987 83.2937 88.1777 82.9402 88.1777ZM82.9402 85.9656C82.9066 85.9656 82.8897 85.9814 82.8729 86.013L82.9571 85.9814C82.9403 85.9656 82.9402 85.9656 82.9402 85.9656Z" fill="white"/>
            <path d="M364.105 118.83H344.107C343.451 118.83 342.929 118.341 342.929 117.724C342.929 117.108 343.451 116.618 344.107 116.618H364.105C364.761 116.618 365.283 117.108 365.283 117.724C365.283 118.341 364.745 118.83 364.105 118.83Z" fill="white"/>
            <path d="M354.106 128.216C353.449 128.216 352.927 127.726 352.927 127.11V108.339C352.927 107.723 353.449 107.233 354.106 107.233C354.762 107.233 355.284 107.723 355.284 108.339V127.11C355.284 127.726 354.745 128.216 354.106 128.216Z" fill="white"/>
            <path d="M182.879 245.724H163.319C162.662 245.724 162.14 245.234 162.14 244.618C162.14 244.002 162.662 243.512 163.319 243.512H182.879C183.535 243.512 184.057 244.002 184.057 244.618C184.057 245.219 183.535 245.724 182.879 245.724Z" fill="white"/>
            <path d="M173.098 254.904C172.442 254.904 171.92 254.414 171.92 253.798V235.438C171.92 234.822 172.442 234.332 173.098 234.332C173.755 234.332 174.277 234.822 174.277 235.438V253.798C174.277 254.414 173.738 254.904 173.098 254.904Z" fill="white"/>
            <path d="M178.064 84.6858C177.761 84.6858 177.458 84.5752 177.222 84.354C176.768 83.9274 176.768 83.2164 177.222 82.7898L191.211 69.6596C191.665 69.2329 192.423 69.2329 192.877 69.6596C193.332 70.0862 193.332 70.7972 192.877 71.2238L178.889 84.354C178.67 84.5752 178.367 84.6858 178.064 84.6858Z" fill="white"/>
            <path d="M192.053 84.6858C191.75 84.6858 191.447 84.5752 191.211 84.354L177.222 71.2238C176.768 70.7972 176.768 70.0862 177.222 69.6596C177.677 69.2329 178.434 69.2329 178.889 69.6596L192.877 82.7898C193.332 83.2164 193.332 83.9274 192.877 84.354C192.659 84.5752 192.356 84.6858 192.053 84.6858Z" fill="white"/>
            <path d="M75.4999 55.4391C75.18 55.4391 74.8939 55.3285 74.6582 55.1073L63.4136 44.5526C62.9591 44.126 62.9591 43.4149 63.4136 42.9883L74.6582 32.4336C75.0959 32.0228 75.887 32.0228 76.3247 32.4336L87.5693 42.9883C88.0238 43.4149 88.0238 44.126 87.5693 44.5526L76.3247 55.1073C76.1059 55.3127 75.8029 55.4391 75.4999 55.4391ZM65.9049 43.7625L75.483 52.753L85.0611 43.7625L75.4999 34.7721L65.9049 43.7625Z" fill="white"/>
        </g>
    </g>
</svg>
